<svg xmlns="http://www.w3.org/2000/svg" xmlns:xlink="http://www.w3.org/1999/xlink" viewBox="0 0 63.92 529.63"><defs><style>.cls-1{fill:url(#linear-gradient);}.cls-2{fill:url(#linear-gradient-2);}.cls-3{fill:url(#linear-gradient-3);}.cls-4{fill:url(#linear-gradient-4);}.cls-5{fill:url(#linear-gradient-5);}.cls-6{fill:url(#linear-gradient-6);}.cls-7{fill:url(#linear-gradient-7);}.cls-8{fill:url(#linear-gradient-8);}.cls-9{fill:url(#linear-gradient-9);}.cls-10{fill:url(#linear-gradient-10);}.cls-11{fill:#191919;}.cls-12{fill:#282727;}.cls-13{fill:#232323;}.cls-14{fill:url(#linear-gradient-11);}.cls-15{fill:url(#linear-gradient-12);}.cls-16{fill:url(#linear-gradient-13);}.cls-17{fill:#b5283d;}.cls-18{fill:#01527f;}.cls-19{fill:#922;}.cls-20{fill:#20276b;}.cls-21,.cls-22{fill-opacity:0.7;}.cls-21{fill:url(#linear-gradient-14);}.cls-22{fill:url(#linear-gradient-15);}.cls-23{fill:url(#linear-gradient-16);}.cls-24{fill:url(#linear-gradient-17);}.cls-25{fill:url(#linear-gradient-18);}.cls-26{fill:url(#linear-gradient-19);}.cls-27{fill:url(#linear-gradient-20);}.cls-28{fill:url(#linear-gradient-21);}.cls-29{fill:url(#linear-gradient-22);}.cls-30{fill:url(#linear-gradient-23);}</style><linearGradient id="linear-gradient" x1="32.05" y1="281.63" x2="7.67" y2="281.63" gradientUnits="userSpaceOnUse"><stop offset="0.09" stop-color="#f5f5f5"/><stop offset="0.66" stop-color="#b5b5b5"/></linearGradient><linearGradient id="linear-gradient-2" x1="7.67" y1="62.6" x2="0" y2="62.6" gradientUnits="userSpaceOnUse"><stop offset="0" stop-color="#fff"/><stop offset="1" stop-color="#adadad"/></linearGradient><linearGradient id="linear-gradient-3" x1="10.74" y1="219.16" x2="16.5" y2="219.16" gradientUnits="userSpaceOnUse"><stop offset="0.15" stop-color="#bababa"/><stop offset="0.89" stop-color="#d9d9d9"/></linearGradient><linearGradient id="linear-gradient-4" x1="31.86" y1="281.63" x2="56.25" y2="281.63" gradientUnits="userSpaceOnUse"><stop offset="0.5" stop-color="#f5f5f5"/><stop offset="1" stop-color="#fff"/></linearGradient><linearGradient id="linear-gradient-5" x1="-2404.83" y1="62.6" x2="-2412.5" y2="62.6" gradientTransform="matrix(-1, 0, 0, 1, -2348.58, 0)" xlink:href="#linear-gradient-2"/><linearGradient id="linear-gradient-6" x1="-2401.75" y1="219.16" x2="-2396" y2="219.16" gradientTransform="matrix(-1, 0, 0, 1, -2348.58, 0)" gradientUnits="userSpaceOnUse"><stop offset="0.15" stop-color="#dedede"/><stop offset="0.89" stop-color="#f0f0f0"/></linearGradient><linearGradient id="linear-gradient-7" x1="56.36" y1="23.15" x2="7.67" y2="23.15" gradientUnits="userSpaceOnUse"><stop offset="0.54" stop-color="#f5f5f5"/><stop offset="1" stop-color="#a3a3a3"/></linearGradient><linearGradient id="linear-gradient-8" x1="17.42" y1="524.12" x2="8.17" y2="524.12" gradientUnits="userSpaceOnUse"><stop offset="0" stop-color="#474444"/><stop offset="0.54" stop-color="#70706d"/><stop offset="1" stop-color="#2f2b2c"/></linearGradient><linearGradient id="linear-gradient-9" x1="22.67" y1="525.01" x2="13.42" y2="525.01" gradientUnits="userSpaceOnUse"><stop offset="0" stop-color="#474444"/><stop offset="0.38" stop-color="#70706d"/><stop offset="1" stop-color="#2f2b2c"/></linearGradient><linearGradient id="linear-gradient-10" x1="31.28" y1="525.19" x2="22.03" y2="525.19" xlink:href="#linear-gradient-9"/><linearGradient id="linear-gradient-11" x1="-2357.01" y1="524.12" x2="-2366.26" y2="524.12" gradientTransform="matrix(-1, 0, 0, 1, -2310.35, 0)" xlink:href="#linear-gradient-8"/><linearGradient id="linear-gradient-12" x1="-2351.76" y1="525.01" x2="-2361.01" y2="525.01" gradientTransform="matrix(-1, 0, 0, 1, -2310.35, 0)" xlink:href="#linear-gradient-9"/><linearGradient id="linear-gradient-13" x1="-2343.15" y1="525.19" x2="-2352.4" y2="525.19" gradientTransform="matrix(-1, 0, 0, 1, -2310.35, 0)" xlink:href="#linear-gradient-9"/><linearGradient id="linear-gradient-14" x1="32.11" y1="40.09" x2="7.67" y2="40.09" xlink:href="#linear-gradient-9"/><linearGradient id="linear-gradient-15" x1="-2338.11" y1="40.09" x2="-2362.55" y2="40.09" gradientTransform="matrix(-1, 0, 0, 1, -2306.07, 0)" xlink:href="#linear-gradient-9"/><linearGradient id="linear-gradient-16" x1="14.02" y1="49.89" x2="9.89" y2="49.89" gradientUnits="userSpaceOnUse"><stop offset="0" stop-color="#dbdbdb"/><stop offset="0.66" stop-color="#a1a1a1"/></linearGradient><linearGradient id="linear-gradient-17" x1="33.86" y1="49.89" x2="29.72" y2="49.89" xlink:href="#linear-gradient-16"/><linearGradient id="linear-gradient-18" x1="54.8" y1="49.89" x2="50.66" y2="49.89" xlink:href="#linear-gradient-16"/><linearGradient id="linear-gradient-19" x1="14.02" y1="76.88" x2="9.89" y2="76.88" xlink:href="#linear-gradient-16"/><linearGradient id="linear-gradient-20" x1="33.86" y1="76.88" x2="29.72" y2="76.88" xlink:href="#linear-gradient-16"/><linearGradient id="linear-gradient-21" x1="54.8" y1="76.88" x2="50.66" y2="76.88" xlink:href="#linear-gradient-16"/><linearGradient id="linear-gradient-22" x1="30.98" y1="62.41" x2="32.23" y2="62.41" gradientUnits="userSpaceOnUse"><stop offset="0" stop-color="#dbdbdb"/><stop offset="0.66" stop-color="#f0f0f0"/></linearGradient><linearGradient id="linear-gradient-23" x1="25.27" y1="1291.56" x2="30.98" y2="1291.56" gradientTransform="matrix(1, -0.97, 0, 1, 0, -1199.42)" gradientUnits="userSpaceOnUse"><stop offset="0" stop-color="#c2c2c2"/><stop offset="0.81" stop-color="#adadad"/></linearGradient></defs><title>Falcon 9 SVG</title><g id="Layer_2" data-name="Layer 2"><g id="Layer_2-2" data-name="Layer 2"><polygon class="cls-1" points="32.05 516.95 7.67 516.95 7.67 62.47 7.67 46.3 32.05 46.3 32.05 516.95"/><polygon class="cls-2" points="0 65.87 7.67 52.77 7.67 72.42 0 71.5 0 65.87"/><path class="cls-3" d="M13.93,213.06l-1,1.35v1.47l-2.21,2.45v6.49l5.76.43v-6.68L15.15,216l-.24-1.71S15.76,213.19,13.93,213.06Z"/><polygon class="cls-4" points="31.86 516.95 56.25 516.95 56.25 62.47 56.25 46.3 31.86 46.3 31.86 516.95"/><polygon class="cls-5" points="63.92 65.87 56.25 52.77 56.25 72.42 63.92 71.5 63.92 65.87"/><path class="cls-6" d="M50,213.06l1,1.35v1.47l2.21,2.45v6.49l-5.76.43v-6.68L48.77,216l.24-1.71S48.15,213.19,50,213.06Z"/><path class="cls-7" d="M54.53,31.65c-1.9-5.29-6.92-23.43-13.27-27.78C35.28-.22,32.34,0,32,0s-3.26-.23-9.25,3.86C16.42,8.22,11.4,26.36,9.5,31.65S7.67,46.3,7.67,46.3H56.36S56.44,36.94,54.53,31.65Z"/><path class="cls-8" d="M17.07,525.61c-.36-1-1.31-4.39-2.52-5.21s-1.7-.73-1.76-.72-.62,0-1.75.72-2.17,4.22-2.53,5.21a10,10,0,0,0-.34,2.74s2.6.22,4.62.22,4.63-.22,4.63-.22A10.17,10.17,0,0,0,17.07,525.61Z"/><path class="cls-9" d="M22.33,526.49c-.37-1-1.32-4.39-2.53-5.2a3.07,3.07,0,0,0-1.75-.73,3.09,3.09,0,0,0-1.76.73c-1.21.81-2.16,4.21-2.52,5.2a10.23,10.23,0,0,0-.35,2.75s2.61.21,4.62.21,4.63-.21,4.63-.21A10.07,10.07,0,0,0,22.33,526.49Z"/><path class="cls-10" d="M30.94,526.67c-.37-1-1.32-4.39-2.53-5.2s-1.69-.73-1.75-.72-.62,0-1.76.72-2.16,4.21-2.52,5.2a10.23,10.23,0,0,0-.35,2.75s2.61.21,4.62.21,4.63-.21,4.63-.21A10.07,10.07,0,0,0,30.94,526.67Z"/><path class="cls-11" d="M12.14,429c2.6,3,3,11.78,3,11.78S27.27,499.14,29.38,501a29.52,29.52,0,0,0,2.83,2.27v19.35s-8.28-.68-13-.91-11.7-2.85-11.7-2.85v-6.71s-1.75-6.71-1.88-9.67,3.91-62.25,3.91-62.25S11.3,428.05,12.14,429Z"/><path class="cls-12" d="M12.14,429c2.6,3,3,11.78,3,11.78L32.21,514.9S14.75,475.1,12,475.78c-3.38.83-4.45,36.33-4.45,36.33s-1.75-6.71-1.88-9.67,3.91-62.25,3.91-62.25,1.24-8.58,2.14-10.73C11.85,429.05,12,428.88,12.14,429Z"/><path class="cls-13" d="M11.68,429.46,12,475.78s-1.61,1.16-2.54,10.72c-.67,6.88-1.91,25.61-1.91,25.61s-1.92-5.75-1.88-8.48,3.55-61,3.91-63.44C11.09,429.94,11.68,429.46,11.68,429.46Z"/><path class="cls-14" d="M47,525.61c.36-1,1.31-4.39,2.52-5.21s1.69-.73,1.75-.72.62,0,1.76.72,2.16,4.22,2.52,5.21a9.76,9.76,0,0,1,.35,2.74s-2.61.22-4.62.22-4.63-.22-4.63-.22A9.76,9.76,0,0,1,47,525.61Z"/><path class="cls-15" d="M41.75,526.49c.36-1,1.32-4.39,2.52-5.2a3.11,3.11,0,0,1,1.76-.73,3.11,3.11,0,0,1,1.76.73c1.2.81,2.16,4.21,2.52,5.2a10.23,10.23,0,0,1,.35,2.75s-2.61.21-4.62.21-4.64-.21-4.64-.21A10.23,10.23,0,0,1,41.75,526.49Z"/><path class="cls-16" d="M33.14,526.67c.36-1,1.32-4.39,2.52-5.2s1.7-.73,1.76-.72.62,0,1.76.72,2.16,4.21,2.52,5.2a10.23,10.23,0,0,1,.35,2.75s-2.61.21-4.62.21-4.64-.21-4.64-.21A10.23,10.23,0,0,1,33.14,526.67Z"/><path class="cls-11" d="M51.93,429c-2.59,3-3,11.78-3,11.78S36.8,499.14,34.69,501a29,29,0,0,1-2.82,2.27v19.35s8.28-.68,13-.91,11.7-2.85,11.7-2.85v-6.71s1.76-6.71,1.88-9.67-3.9-62.25-3.9-62.25S52.78,428.05,51.93,429Z"/><path class="cls-12" d="M51.93,429c-2.59,3-3,11.78-3,11.78L31.87,514.9s17.46-39.8,20.25-39.12c3.38.83,4.44,36.33,4.44,36.33s1.76-6.71,1.88-9.67-3.9-62.25-3.9-62.25-1.24-8.58-2.14-10.73C52.23,429.05,52.07,428.88,51.93,429Z"/><path class="cls-13" d="M52.4,429.46l-.28,46.32s1.61,1.16,2.54,10.72c.67,6.88,1.9,25.61,1.9,25.61s1.93-5.75,1.89-8.48-3.55-61-3.91-63.44C53,429.94,52.4,429.46,52.4,429.46Z"/><path class="cls-17" d="M14,160.8a32.48,32.48,0,0,0,4.4,6.86c2.45,2.7,8.45,6.86,8.45,6.86l-2.94,1.35s-4.53-3.07-6.36-6.25A53.34,53.34,0,0,1,14,160.8Z"/><path class="cls-17" d="M18.55,166.64a21.64,21.64,0,0,0,9.79,4.28c5.51.74,11.57.87,11.57.87a8.2,8.2,0,0,0,.74,1.34,3.9,3.9,0,0,1,.55,1.15,4.06,4.06,0,0,1,2.59,1.12,3.37,3.37,0,0,1,.35,3.36,2.91,2.91,0,0,0-1.88-2.31,4.32,4.32,0,0,0-2.69-.26s.43-.9-.9-1.66a7.11,7.11,0,0,0-2.57-.37c1.13-.34.89-.71.46-.85a5.58,5.58,0,0,0-2.17-.25,22,22,0,0,0-5.86,1.41s-2.35-1.62-5.08-3.36A30.06,30.06,0,0,1,18.55,166.64Z"/><polygon points="12.62 180.82 15.43 180.82 15.43 181.5 13.41 181.5 13.41 182.51 14.82 182.51 14.82 183.18 13.41 183.18 13.41 185.48 12.62 185.48 12.62 180.82"/><path d="M18.28,185.26v-3.52a1.72,1.72,0,0,1,1.74-1c1.41,0,1.69.86,1.69.86v3.61h-.89V181.8a1.21,1.21,0,0,0-.83-.33,1,1,0,0,0-.76.33v.92H20v.61h-.76v1.93Z"/><polygon points="25.66 180.92 26.62 180.92 26.62 184.61 29.15 184.61 29.15 185.32 25.66 185.32 25.66 180.92"/><path d="M34.28,181a2.11,2.11,0,0,0-1.43,1.84,2.17,2.17,0,0,0,2.27,2.47,4.18,4.18,0,0,0,2.78-.88,3.43,3.43,0,0,1-2.81.12c-.93-.44-1.4-1-1.31-1.71A11.6,11.6,0,0,1,34.28,181Z"/><path d="M32.34,182.22s0-1.95,1.06-2.65a3.67,3.67,0,0,1,2.94-.81,12.22,12.22,0,0,1,3.76,1.15,12,12,0,0,0-3.84-.4,4,4,0,0,0-2.61.89A5.82,5.82,0,0,0,32.34,182.22Z"/><path d="M48,185.29v-3.82a2.46,2.46,0,0,1,1.66-.86,3,3,0,0,1,1.8.86v3.82h-.85V181.8a1.08,1.08,0,0,0-1.75,0v3.49Z"/><path d="M42.83,180.61A2.33,2.33,0,1,0,45,182.94,2.24,2.24,0,0,0,42.83,180.61Zm0,4.29c-.71,0-1.28-.88-1.28-2s.57-2,1.28-2,1.28.88,1.28,2S43.54,184.9,42.83,184.9Z"/><path d="M35.88,191.17a4.53,4.53,0,0,0-4.38-3.59,4,4,0,0,0-4.11,3,2.79,2.79,0,0,0,1.27,3.25,4.13,4.13,0,0,0,5.25-1.41,3.51,3.51,0,0,1-.44,2c-.37.44-.4,1-2.49,1.8a8.56,8.56,0,0,1-3.42.69l-.68.49a29.33,29.33,0,0,0,3.43,0,7.71,7.71,0,0,0,4-1.35C35.49,195.21,36.31,193.54,35.88,191.17Zm-3.27,1.35c-1.15.64-3.09.53-3.66-.48A2.26,2.26,0,0,1,30,189c1.15-.65,3.1-.54,3.66.48A2.26,2.26,0,0,1,32.61,192.52Z"/><path class="cls-18" d="M38,272.13a.77.77,0,0,1-.69.82H25.65a.77.77,0,0,1-.69-.82h0a.92.92,0,0,1,.69-.81H37.31a.76.76,0,0,1,.69.81Z"/><path class="cls-18" d="M26.19,271.32c.71,0,1.28.13,1.28.28v4.62c0,.15-.4.28-1.12.28H25.8c-.72,0-.93-.13-.93-.28V271.6c0-.15.19-.27.91-.27Z"/><path class="cls-18" d="M37.19,274.81c.65,0,1.18.13,1.18.28v4.74c0,.15-.53.28-1.18.28h0c-.65,0-1.18-.13-1.18-.28v-4.74c0-.15.53-.28,1.18-.28Z"/><path class="cls-18" d="M38,275.65a.78.78,0,0,1-.69.85H25.65c-.33-.07-.48-.38-.69-.85h0a.78.78,0,0,1,.69-.84H37.31a.78.78,0,0,1,.69.84Z"/><path class="cls-18" d="M38,279.3a.76.76,0,0,1-.69.81H25.65a.76.76,0,0,1-.69-.81h0a.76.76,0,0,1,.69-.81H37.31a.76.76,0,0,1,.69.81Z"/><path class="cls-18" d="M38,298.87a.77.77,0,0,1-.69.83H25.65a.77.77,0,0,1-.69-.83h0a.77.77,0,0,1,.69-.82H37.31a.77.77,0,0,1,.69.82Z"/><path class="cls-18" d="M38,302.78a.74.74,0,0,1-.69.79H25.65a.74.74,0,0,1-.69-.79h0a.75.75,0,0,1,.69-.79H37.31a.75.75,0,0,1,.69.79Z"/><path class="cls-18" d="M36.76,303.57c-.79,0-1.44-.13-1.44-.29v-4.94c0-.16.65-.29,1.44-.29h0c.8,0,1.44.13,1.44.29v4.94c0,.16-.64.29-1.44.29Z"/><path class="cls-18" d="M25.82,298.05c.77,0,1.41.21,1.41.46v7.94c0,.26-.64.47-1.41.47h0c-.78,0-1.41-.21-1.41-.47v-7.94c0-.25.63-.46,1.41-.46Z"/><path class="cls-18" d="M38,352.36a.69.69,0,0,1-.69.69H25.65a.69.69,0,0,1-.69-.69h0a.68.68,0,0,1,.69-.68H37.31a.68.68,0,0,1,.69.68Z"/><path class="cls-18" d="M25.68,360.4c-.77,0-1.39-.21-1.39-.46v-7.8c0-.26.62-.46,1.39-.46h0c.78,0,1.4.2,1.4.46v7.8c0,.25-.62.46-1.4.46Z"/><path class="cls-18" d="M38,359.71a.69.69,0,0,1-.69.69H25.65a.69.69,0,0,1-.69-.69h0a.69.69,0,0,1,.69-.69H37.31a.69.69,0,0,1,.69.69Z"/><polygon class="cls-18" points="25.67 332.24 27.33 330.28 33.04 330.28 30.14 326.61 31.66 324.59 38.92 333.58 35.53 333.58 34.52 332.24 25.67 332.24"/><rect class="cls-18" x="24.71" y="378.09" width="13.07" height="1.93"/><rect class="cls-18" x="24.71" y="385.41" width="13.07" height="1.93"/><rect class="cls-18" x="24.71" y="381.22" width="8.97" height="1.62"/><rect class="cls-18" x="24.71" y="381.22" width="2.91" height="6.12"/><path class="cls-18" d="M22.88,413.75a13.19,13.19,0,0,1,3.7-3.33,55.37,55.37,0,0,1,5.51-3.22c1.53-.61,4.68-2.11,6.18-2.81a26.21,26.21,0,0,0,3.56-1.78c1.16-.76,2-1.31,2-1.31A8.66,8.66,0,0,1,41.64,404c-1.13.73-2.63,1.74-4.1,2.51S34,408.76,33,409.25a31.66,31.66,0,0,0-3.49,2.55c-1.29,1-2.33,1.95-2.33,1.95Z"/><polygon class="cls-18" points="31.69 411.18 34.11 409.5 40.08 413.88 35.73 413.88 31.69 411.18"/><polygon class="cls-18" points="27.9 408.67 30.77 407.23 27.9 404.94 22.88 404.94 27.9 408.67"/><rect class="cls-19" x="23.86" y="252.04" width="14.1" height="0.64"/><rect class="cls-19" x="23.86" y="250.89" width="14.1" height="0.64"/><rect class="cls-19" x="23.86" y="249.74" width="14.1" height="0.64"/><rect class="cls-19" x="23.86" y="248.59" width="14.1" height="0.64"/><rect class="cls-19" x="23.86" y="247.45" width="14.1" height="0.64"/><rect class="cls-19" x="23.86" y="246.3" width="14.1" height="0.64"/><rect class="cls-19" x="23.86" y="245.15" width="14.1" height="0.64"/><rect class="cls-20" x="23.86" y="245.15" width="6.34" height="4.09"/><path d="M7.67,46.3s-.17-6.92.67-10.8A27,27,0,0,1,9.8,30.77h6.12L17,42.67H32.23l-.06,3.63Z"/><path d="M56.42,46.3s.17-6.92-.67-10.8a26,26,0,0,0-1.46-4.73H48.18l-1.11,11.9H32l.07,3.63Z"/><path class="cls-21" d="M7.67,46.3S9.8,36.16,13,34.77,16.22,34,16.22,34l.8,8.63H32l.07,3.63Z"/><path class="cls-22" d="M56.48,46.3s-2.12-10.14-5.3-11.53S47.94,34,47.94,34l-.8,8.63h-15l-.06,3.63Z"/><rect class="cls-23" x="9.89" y="48.84" width="4.14" height="2.09"/><rect class="cls-24" x="29.72" y="48.84" width="4.14" height="2.09"/><rect class="cls-25" x="50.66" y="48.84" width="4.14" height="2.09"/><rect class="cls-26" x="9.89" y="75.84" width="4.14" height="2.09"/><rect class="cls-27" x="29.72" y="75.84" width="4.14" height="2.09"/><rect class="cls-28" x="50.66" y="75.84" width="4.14" height="2.09"/><rect x="7.67" y="212.95" width="48.57" height="0.14"/><rect class="cls-29" x="30.98" y="52.4" width="1.25" height="20.02"/><polygon class="cls-30" points="25.27 71.02 30.98 52.4 30.98 72.05 25.27 76.65 25.27 71.02"/></g></g></svg>